<mxfile host="app.diagrams.net" modified="2023-07-15T17:41:24.772Z" agent="Mozilla/5.0 (X11; Linux x86_64; rv:109.0) Gecko/20100101 Firefox/115.0" etag="7ggN92TnpSD2ROwOCxbS" version="21.6.2" type="device">
  <diagram name="Page-1" id="2YBvvXClWsGukQMizWep">
    <mxGraphModel dx="978" dy="483" grid="1" gridSize="10" guides="1" tooltips="1" connect="1" arrows="1" fold="1" page="1" pageScale="1" pageWidth="850" pageHeight="1100" math="0" shadow="0">
      <root>
        <mxCell id="0" />
        <mxCell id="1" parent="0" />
        <mxCell id="aM9ryv3xv72pqoxQDRHE-1" value="Agent" style="shape=umlLifeline;perimeter=lifelinePerimeter;whiteSpace=wrap;html=1;container=0;dropTarget=0;collapsible=0;recursiveResize=0;outlineConnect=0;portConstraint=eastwest;newEdgeStyle={&quot;edgeStyle&quot;:&quot;elbowEdgeStyle&quot;,&quot;elbow&quot;:&quot;vertical&quot;,&quot;curved&quot;:0,&quot;rounded&quot;:0};fontFamily=Linux Libertine;verticalAlign=middle;spacing=2;" parent="1" vertex="1">
          <mxGeometry x="50" y="30" width="100" height="500" as="geometry" />
        </mxCell>
        <mxCell id="aM9ryv3xv72pqoxQDRHE-2" value="" style="html=1;points=[];perimeter=orthogonalPerimeter;outlineConnect=0;targetShapes=umlLifeline;portConstraint=eastwest;newEdgeStyle={&quot;edgeStyle&quot;:&quot;elbowEdgeStyle&quot;,&quot;elbow&quot;:&quot;vertical&quot;,&quot;curved&quot;:0,&quot;rounded&quot;:0};fontFamily=Linux Libertine;" parent="aM9ryv3xv72pqoxQDRHE-1" vertex="1">
          <mxGeometry x="45" y="70" width="10" height="410" as="geometry" />
        </mxCell>
        <mxCell id="aM9ryv3xv72pqoxQDRHE-3" value="Init()" style="html=1;verticalAlign=bottom;startArrow=oval;endArrow=block;startSize=8;edgeStyle=elbowEdgeStyle;elbow=vertical;curved=0;rounded=0;fontFamily=Latin Modern Mono Light;spacing=3;" parent="aM9ryv3xv72pqoxQDRHE-1" target="aM9ryv3xv72pqoxQDRHE-2" edge="1">
          <mxGeometry relative="1" as="geometry">
            <mxPoint x="-15" y="70" as="sourcePoint" />
          </mxGeometry>
        </mxCell>
        <mxCell id="aM9ryv3xv72pqoxQDRHE-5" value="H.V.GraphGenerator" style="shape=umlLifeline;perimeter=lifelinePerimeter;whiteSpace=wrap;html=1;container=0;dropTarget=0;collapsible=0;recursiveResize=0;outlineConnect=0;portConstraint=eastwest;newEdgeStyle={&quot;edgeStyle&quot;:&quot;elbowEdgeStyle&quot;,&quot;elbow&quot;:&quot;vertical&quot;,&quot;curved&quot;:0,&quot;rounded&quot;:0};fontFamily=Linux Libertine;" parent="1" vertex="1">
          <mxGeometry x="210" y="30" width="120" height="500" as="geometry" />
        </mxCell>
        <mxCell id="aM9ryv3xv72pqoxQDRHE-6" value="" style="html=1;points=[];perimeter=orthogonalPerimeter;outlineConnect=0;targetShapes=umlLifeline;portConstraint=eastwest;newEdgeStyle={&quot;edgeStyle&quot;:&quot;elbowEdgeStyle&quot;,&quot;elbow&quot;:&quot;vertical&quot;,&quot;curved&quot;:0,&quot;rounded&quot;:0};fontFamily=Linux Libertine;" parent="aM9ryv3xv72pqoxQDRHE-5" vertex="1">
          <mxGeometry x="55" y="80" width="10" height="380" as="geometry" />
        </mxCell>
        <mxCell id="vcmvwX2yCh51Hj_THdLI-1" value="" style="html=1;points=[];perimeter=orthogonalPerimeter;outlineConnect=0;targetShapes=umlLifeline;portConstraint=eastwest;newEdgeStyle={&quot;edgeStyle&quot;:&quot;elbowEdgeStyle&quot;,&quot;elbow&quot;:&quot;vertical&quot;,&quot;curved&quot;:0,&quot;rounded&quot;:0};" parent="aM9ryv3xv72pqoxQDRHE-5" vertex="1">
          <mxGeometry x="60" y="290" width="10" height="30" as="geometry" />
        </mxCell>
        <mxCell id="vcmvwX2yCh51Hj_THdLI-2" value="&lt;font face=&quot;Linux Libertine&quot;&gt;Create graph&lt;br&gt;&lt;/font&gt;" style="html=1;align=left;spacingLeft=2;endArrow=block;rounded=0;edgeStyle=orthogonalEdgeStyle;curved=0;rounded=0;" parent="aM9ryv3xv72pqoxQDRHE-5" target="vcmvwX2yCh51Hj_THdLI-1" edge="1">
          <mxGeometry relative="1" as="geometry">
            <mxPoint x="65" y="280" as="sourcePoint" />
            <Array as="points">
              <mxPoint x="100" y="280" />
              <mxPoint x="100" y="290" />
            </Array>
          </mxGeometry>
        </mxCell>
        <mxCell id="vcmvwX2yCh51Hj_THdLI-3" value="" style="html=1;points=[];perimeter=orthogonalPerimeter;outlineConnect=0;targetShapes=umlLifeline;portConstraint=eastwest;newEdgeStyle={&quot;edgeStyle&quot;:&quot;elbowEdgeStyle&quot;,&quot;elbow&quot;:&quot;vertical&quot;,&quot;curved&quot;:0,&quot;rounded&quot;:0};" parent="aM9ryv3xv72pqoxQDRHE-5" vertex="1">
          <mxGeometry x="60" y="350" width="10" height="30" as="geometry" />
        </mxCell>
        <mxCell id="vcmvwX2yCh51Hj_THdLI-4" value="&lt;div&gt;&lt;font face=&quot;Linux Libertine&quot;&gt;Merge road edges&lt;/font&gt;&lt;/div&gt;&lt;div&gt;&lt;font face=&quot;Linux Libertine&quot;&gt;into graph&lt;br&gt;&lt;/font&gt;&lt;/div&gt;" style="html=1;align=left;spacingLeft=2;endArrow=block;rounded=0;edgeStyle=orthogonalEdgeStyle;curved=0;rounded=0;" parent="aM9ryv3xv72pqoxQDRHE-5" target="vcmvwX2yCh51Hj_THdLI-3" edge="1">
          <mxGeometry relative="1" as="geometry">
            <mxPoint x="65" y="340" as="sourcePoint" />
            <Array as="points">
              <mxPoint x="100" y="340" />
              <mxPoint x="100" y="350" />
            </Array>
          </mxGeometry>
        </mxCell>
        <mxCell id="vcmvwX2yCh51Hj_THdLI-5" value="" style="html=1;points=[];perimeter=orthogonalPerimeter;outlineConnect=0;targetShapes=umlLifeline;portConstraint=eastwest;newEdgeStyle={&quot;edgeStyle&quot;:&quot;elbowEdgeStyle&quot;,&quot;elbow&quot;:&quot;vertical&quot;,&quot;curved&quot;:0,&quot;rounded&quot;:0};" parent="aM9ryv3xv72pqoxQDRHE-5" vertex="1">
          <mxGeometry x="60" y="410" width="10" height="30" as="geometry" />
        </mxCell>
        <mxCell id="vcmvwX2yCh51Hj_THdLI-6" value="&lt;font face=&quot;Linux Libertine&quot;&gt;Add POI attributes&lt;br&gt;&lt;/font&gt;" style="html=1;align=left;spacingLeft=2;endArrow=block;rounded=0;edgeStyle=orthogonalEdgeStyle;curved=0;rounded=0;verticalAlign=middle;spacing=2;spacingBottom=0;spacingTop=0;" parent="aM9ryv3xv72pqoxQDRHE-5" target="vcmvwX2yCh51Hj_THdLI-5" edge="1">
          <mxGeometry relative="1" as="geometry">
            <mxPoint x="65" y="400" as="sourcePoint" />
            <Array as="points">
              <mxPoint x="100" y="400" />
              <mxPoint x="100" y="410" />
            </Array>
          </mxGeometry>
        </mxCell>
        <mxCell id="aM9ryv3xv72pqoxQDRHE-7" value="Generate()" style="html=1;verticalAlign=bottom;endArrow=block;edgeStyle=elbowEdgeStyle;elbow=vertical;curved=0;rounded=0;fontFamily=Latin Modern Mono Light;spacing=3;" parent="1" source="aM9ryv3xv72pqoxQDRHE-2" target="aM9ryv3xv72pqoxQDRHE-6" edge="1">
          <mxGeometry relative="1" as="geometry">
            <mxPoint x="205" y="120" as="sourcePoint" />
            <Array as="points">
              <mxPoint x="190" y="110" />
            </Array>
          </mxGeometry>
        </mxCell>
        <mxCell id="aM9ryv3xv72pqoxQDRHE-8" value="return hybrid visibility graph" style="html=1;verticalAlign=bottom;endArrow=open;dashed=1;endSize=8;edgeStyle=elbowEdgeStyle;elbow=vertical;curved=0;rounded=0;fontFamily=Linux Libertine;spacing=3;" parent="1" source="aM9ryv3xv72pqoxQDRHE-6" target="aM9ryv3xv72pqoxQDRHE-2" edge="1">
          <mxGeometry relative="1" as="geometry">
            <mxPoint x="205" y="195" as="targetPoint" />
            <Array as="points">
              <mxPoint x="240" y="490" />
              <mxPoint x="240" y="570" />
              <mxPoint x="240" y="600" />
              <mxPoint x="270" y="320" />
              <mxPoint x="240" y="310" />
              <mxPoint x="220" y="220" />
              <mxPoint x="250" y="230" />
              <mxPoint x="200" y="270" />
            </Array>
          </mxGeometry>
        </mxCell>
        <mxCell id="zFFP4pUxAyyu4GTBcuHr-1" value="&lt;div&gt;VisibilityGraphGenerator&lt;/div&gt;" style="shape=umlLifeline;perimeter=lifelinePerimeter;whiteSpace=wrap;html=1;container=1;dropTarget=0;collapsible=0;recursiveResize=0;outlineConnect=0;portConstraint=eastwest;newEdgeStyle={&quot;edgeStyle&quot;:&quot;elbowEdgeStyle&quot;,&quot;elbow&quot;:&quot;vertical&quot;,&quot;curved&quot;:0,&quot;rounded&quot;:0};fontFamily=Linux Libertine;" parent="1" vertex="1">
          <mxGeometry x="380" y="30" width="140" height="500" as="geometry" />
        </mxCell>
        <mxCell id="zFFP4pUxAyyu4GTBcuHr-2" value="" style="html=1;points=[];perimeter=orthogonalPerimeter;outlineConnect=0;targetShapes=umlLifeline;portConstraint=eastwest;newEdgeStyle={&quot;edgeStyle&quot;:&quot;elbowEdgeStyle&quot;,&quot;elbow&quot;:&quot;vertical&quot;,&quot;curved&quot;:0,&quot;rounded&quot;:0};fontFamily=Linux Libertine;" parent="zFFP4pUxAyyu4GTBcuHr-1" vertex="1">
          <mxGeometry x="65" y="100" width="10" height="160" as="geometry" />
        </mxCell>
        <mxCell id="TJ2kXIVCb5EfAZxdPqK8-9" value="" style="html=1;points=[];perimeter=orthogonalPerimeter;outlineConnect=0;targetShapes=umlLifeline;portConstraint=eastwest;newEdgeStyle={&quot;edgeStyle&quot;:&quot;elbowEdgeStyle&quot;,&quot;elbow&quot;:&quot;vertical&quot;,&quot;curved&quot;:0,&quot;rounded&quot;:0};" parent="zFFP4pUxAyyu4GTBcuHr-1" vertex="1">
          <mxGeometry x="70" y="150" width="10" height="40" as="geometry" />
        </mxCell>
        <mxCell id="TJ2kXIVCb5EfAZxdPqK8-10" value="&lt;div&gt;&lt;font&gt;GetVisibilityNeighborsForVertex()&lt;br&gt;&lt;/font&gt;&lt;/div&gt;" style="html=1;align=left;spacingLeft=2;endArrow=block;rounded=0;edgeStyle=orthogonalEdgeStyle;curved=0;rounded=0;fontFamily=Latin Modern Mono Light;" parent="zFFP4pUxAyyu4GTBcuHr-1" source="zFFP4pUxAyyu4GTBcuHr-2" target="TJ2kXIVCb5EfAZxdPqK8-9" edge="1">
          <mxGeometry relative="1" as="geometry">
            <mxPoint x="80" y="140" as="sourcePoint" />
            <Array as="points">
              <mxPoint x="110" y="140" />
              <mxPoint x="110" y="150" />
            </Array>
            <mxPoint as="offset" />
          </mxGeometry>
        </mxCell>
        <mxCell id="TJ2kXIVCb5EfAZxdPqK8-14" value="return vertex to neighbor mapping" style="html=1;align=left;spacingLeft=2;endArrow=block;rounded=0;edgeStyle=orthogonalEdgeStyle;curved=0;rounded=0;fontFamily=Linux Libertine;dashed=1;" parent="zFFP4pUxAyyu4GTBcuHr-1" source="TJ2kXIVCb5EfAZxdPqK8-9" target="zFFP4pUxAyyu4GTBcuHr-2" edge="1">
          <mxGeometry x="-0.0769" relative="1" as="geometry">
            <mxPoint x="100" y="190" as="sourcePoint" />
            <Array as="points">
              <mxPoint x="110" y="190" />
              <mxPoint x="110" y="200" />
            </Array>
            <mxPoint x="105" y="210" as="targetPoint" />
            <mxPoint as="offset" />
          </mxGeometry>
        </mxCell>
        <mxCell id="zFFP4pUxAyyu4GTBcuHr-8" value="&lt;div&gt;determine visibility edges&lt;/div&gt;&lt;div&gt;&lt;font face=&quot;Latin Modern Mono Light&quot;&gt;CalculateVisibleKnn()&lt;/font&gt;&lt;/div&gt;" style="html=1;verticalAlign=bottom;endArrow=block;edgeStyle=elbowEdgeStyle;elbow=vertical;curved=0;rounded=0;fontFamily=Linux Libertine;spacing=3;" parent="1" source="aM9ryv3xv72pqoxQDRHE-6" target="zFFP4pUxAyyu4GTBcuHr-1" edge="1">
          <mxGeometry width="80" relative="1" as="geometry">
            <mxPoint x="320" y="210" as="sourcePoint" />
            <mxPoint x="400" y="210" as="targetPoint" />
            <Array as="points">
              <mxPoint x="310" y="130" />
              <mxPoint x="360" y="140" />
              <mxPoint x="440" y="120" />
              <mxPoint x="410" y="150" />
              <mxPoint x="320" y="240" />
            </Array>
          </mxGeometry>
        </mxCell>
        <mxCell id="zFFP4pUxAyyu4GTBcuHr-9" value="&lt;div&gt;return mapping of vertices&lt;/div&gt;&lt;div&gt;to visibility neighbors&lt;/div&gt;" style="html=1;verticalAlign=bottom;endArrow=open;dashed=1;endSize=8;edgeStyle=elbowEdgeStyle;elbow=vertical;curved=0;rounded=0;fontFamily=Linux Libertine;spacing=3;" parent="1" source="zFFP4pUxAyyu4GTBcuHr-2" target="aM9ryv3xv72pqoxQDRHE-6" edge="1">
          <mxGeometry relative="1" as="geometry">
            <mxPoint x="280" y="210" as="targetPoint" />
            <Array as="points">
              <mxPoint x="390" y="290" />
              <mxPoint x="430" y="310" />
              <mxPoint x="390" y="290" />
              <mxPoint x="410" y="210" />
              <mxPoint x="420" y="250" />
              <mxPoint x="430" y="210" />
            </Array>
            <mxPoint x="460" y="210" as="sourcePoint" />
          </mxGeometry>
        </mxCell>
        <mxCell id="zFFP4pUxAyyu4GTBcuHr-11" value="return" style="html=1;verticalAlign=bottom;endArrow=open;dashed=1;endSize=8;edgeStyle=elbowEdgeStyle;elbow=vertical;curved=0;rounded=0;fontFamily=Linux Libertine;spacing=3;" parent="1" source="aM9ryv3xv72pqoxQDRHE-2" edge="1">
          <mxGeometry relative="1" as="geometry">
            <mxPoint x="30" y="510" as="targetPoint" />
            <Array as="points">
              <mxPoint x="90" y="510" />
              <mxPoint x="80" y="590" />
              <mxPoint x="70" y="430" />
              <mxPoint x="70" y="330" />
              <mxPoint x="60" y="250" />
              <mxPoint x="135" y="310" />
              <mxPoint x="165" y="320" />
              <mxPoint x="115" y="360" />
            </Array>
            <mxPoint x="200" y="310" as="sourcePoint" />
          </mxGeometry>
        </mxCell>
        <mxCell id="TJ2kXIVCb5EfAZxdPqK8-11" value="&lt;font face=&quot;Linux Libertine&quot;&gt;for each vertex&lt;br&gt;&lt;/font&gt;" style="shape=umlFrame;whiteSpace=wrap;html=1;pointerEvents=0;width=60;height=40;strokeColor=#757575;fontColor=#757575;" parent="1" vertex="1">
          <mxGeometry x="370" y="150" width="320" height="100" as="geometry" />
        </mxCell>
      </root>
    </mxGraphModel>
  </diagram>
</mxfile>
